<svg width="570" height="570" viewBox="0 0 570 570" fill="none" xmlns="http://www.w3.org/2000/svg">
<path d="M549.5 231L123 439.5C234.5 549.5 397.5 518 465.5 392L549.5 231Z" fill="url(#paint0_linear_7226_4800)" fill-opacity="0.9"/>
<path d="M114.5 424L259 353L21 268L114.5 424Z" fill="url(#paint1_linear_7226_4800)" fill-opacity="0.9"/>
<path d="M443.5 264.5L290.5 338V233L502.5 109.5L443.5 264.5Z" fill="url(#paint2_linear_7226_4800)" fill-opacity="0.9"/>
<path d="M376.5 166L290.5 213.5V130.5L396 73L376.5 166Z" fill="url(#paint3_linear_7226_4800)" fill-opacity="0.9"/>
<path d="M272 64V338L68 264.5C97.1647 128.441 143.563 86.522 272 64Z" fill="url(#paint4_linear_7226_4800)" fill-opacity="0.9"/>
<defs>
<linearGradient id="paint0_linear_7226_4800" x1="264" y1="231" x2="264" y2="506.702" gradientUnits="userSpaceOnUse">
<stop stop-color="#6B8EAE"/>
<stop offset="1" stop-color="#96AEC5"/>
</linearGradient>
<linearGradient id="paint1_linear_7226_4800" x1="264" y1="231" x2="264" y2="506.702" gradientUnits="userSpaceOnUse">
<stop stop-color="#6B8EAE"/>
<stop offset="1" stop-color="#96AEC5"/>
</linearGradient>
<linearGradient id="paint2_linear_7226_4800" x1="285.25" y1="64" x2="285.25" y2="338" gradientUnits="userSpaceOnUse">
<stop stop-color="#E53D00"/>
<stop offset="1" stop-color="#FF6933"/>
</linearGradient>
<linearGradient id="paint3_linear_7226_4800" x1="285.25" y1="64" x2="285.25" y2="338" gradientUnits="userSpaceOnUse">
<stop stop-color="#E53D00"/>
<stop offset="1" stop-color="#FF6933"/>
</linearGradient>
<linearGradient id="paint4_linear_7226_4800" x1="285.25" y1="64" x2="285.25" y2="338" gradientUnits="userSpaceOnUse">
<stop stop-color="#E53D00"/>
<stop offset="1" stop-color="#FF6933"/>
</linearGradient>
</defs>
</svg>
